# xmcd
#
# Track frame offsets:
#	150
#	11987
#	26607
#	47945
#	63612
#	74020
#	99777
#
# Disc length: 1648 seconds
#
# Revision: 0
# Processed by: cddbd v1.5.1PL0 Copyright (c) Steve Scherf et al.
# Submitted via: dBpowerAMP V4.0
#
DISCID=61066e07
DTITLE=Jordan Lunardini and the Bad Beat - Halfway There
DYEAR=2004
DGENRE=Blues
TTITLE0=Long Time Gone
TTITLE1=Tradition Blues
TTITLE2=Halfway There
TTITLE3=Soilder
TTITLE4=Righteously Employed
TTITLE5=Whiskey and Wine
TTITLE6=Heaven Bound Blues (Soul Man)
EXTD=an up and coming blues artist from southwest Michigan
EXTT0=
EXTT1=
EXTT2=
EXTT3=
EXTT4=
EXTT5=
EXTT6=
PLAYORDER=
